Coordinates
version=1
nRows=26
nColumns=27
inDegrees=yes

Units are S.I. units (second, meters, Newtons, ...)
If the header above contains a line with 'inDegrees', this indicates whether rotational values are in degrees (yes) or radians (no).

endheader
time	pelvis_rotation	pelvis_tilt	pelvis_list	pelvis_tx	pelvis_ty	pelvis_tz	hip_flexion_r	hip_adduction_r	hip_rotation_r	knee_angle_r	knee_rotation_r	knee_adduction_r	knee_angle_r_beta	ankle_angle_r	subtalar_angle_r	mtp_angle_r	hip_flexion_l	hip_adduction_l	hip_rotation_l	knee_angle_l	knee_rotation_l	knee_adduction_l	knee_angle_l_beta	ankle_angle_l	subtalar_angle_l	mtp_angle_l
      4.64000000	      3.88887597	    -37.33391825	      2.93036940	      0.03169966	      0.43149462	     -1.15514172	    138.65629260	    -47.17002810	     26.40897554	    111.40659657	      0.00000000	      9.92178830	      1.94441192	     18.58632219	      0.00000000	      0.00000000	    134.43363847	    -38.93895676	     20.57654800	    104.62088487	      0.00000000	     -9.94395057	      1.82597891	      9.93386773	      0.00000000	      0.00000000
      4.64500000	      3.90949903	    -37.41128358	      3.10010815	      0.03126225	      0.43188062	     -1.15519443	    138.79344664	    -46.96656259	     26.53969047	    111.35858945	      0.00000000	      9.92131747	      1.94357404	     18.56539047	      0.00000000	      0.00000000	    134.35579738	    -39.05002658	     20.33220132	    104.55282728	      0.00000000	     -9.94383781	      1.82479108	      9.89395864	      0.00000000	      0.00000000
      4.65000000	      3.96569749	    -37.46092477	      3.11996261	      0.03083259	      0.43230888	     -1.15524429	    138.78818921	    -46.94148117	     26.51523679	    111.29902000	      0.00000000	      9.92087021	      1.94253435	     18.51598127	      0.00000000	      0.00000000	    134.35982388	    -39.00188771	     20.23468061	    104.49304238	      0.00000000	     -9.94370322	      1.82374763	      9.80463831	      0.00000000	      0.00000000
      4.65500000	      4.03613000	    -37.51378140	      3.14194946	      0.03037415	      0.43280478	     -1.15530730	    138.78032785	    -46.93585109	     26.48699116	    111.22842103	      0.00000000	      9.92039562	      1.94130217	     18.45653938	      0.00000000	      0.00000000	    134.35242433	    -38.93718089	     20.12121569	    104.42140963	      0.00000000	     -9.94354944	      1.82249741	      9.71627029	      0.00000000	      0.00000000
      4.66000000	      4.08242976	    -37.57152555	      3.07662628	      0.02988433	      0.43339341	     -1.15537459	    138.66867088	    -46.97531105	     26.33719401	    111.13475220	      0.00000000	      9.91978883	      1.93966734	     18.42561360	      0.00000000	      0.00000000	    134.40307695	    -38.82544809	     20.09685311	    104.34600575	      0.00000000	     -9.94342468	      1.82118136	      9.61674034	      0.00000000	      0.00000000
      4.66500000	      4.18116094	    -37.61841992	      3.06504143	      0.02940022	      0.43399513	     -1.15543084	    138.62392495	    -47.04188576	     26.25960105	    111.05330923	      0.00000000	      9.91930889	      1.93824589	     18.37025281	      0.00000000	      0.00000000	    134.40463032	    -38.70280274	     20.00119710	    104.26513982	      0.00000000	     -9.94323239	      1.81976998	      9.48653904	      0.00000000	      0.00000000
      4.67000000	      4.24116003	    -37.71818342	      3.17854966	      0.02881169	      0.43473059	     -1.15551420	    138.68602808	    -46.92430594	     26.28961840	    110.95033294	      0.00000000	      9.91868293	      1.93644862	     18.28763389	      0.00000000	      0.00000000	    134.34293266	    -38.72726814	     19.75888881	    104.15517091	      0.00000000	     -9.94306939	      1.81785067	      9.40880519	      0.00000000	      0.00000000
      4.67500000	      4.13308497	    -37.85154958	      2.96432232	      0.02820700	      0.43551095	     -1.15547574	    138.41904973	    -46.89068062	     25.87352350	    110.83937514	      0.00000000	      9.91804347	      1.93451204	     18.37366687	      0.00000000	      0.00000000	    134.53700066	    -38.67860081	     19.88589167	    104.05824044	      0.00000000	     -9.94309006	      1.81615891	      9.55970660	      0.00000000	      0.00000000
      4.68000000	      4.42686555	    -37.86447737	      3.29914645	      0.02766343	      0.43633418	     -1.15564903	    138.67581864	    -46.88343900	     26.23060700	    110.73486794	      0.00000000	      9.91762057	      1.93268804	     18.18665424	      0.00000000	      0.00000000	    134.21295153	    -38.60979276	     19.36757522	    103.91885336	      0.00000000	     -9.94265655	      1.81372615	      9.22827743	      0.00000000	      0.00000000
      4.68500000	      4.46369448	    -37.96609782	      3.33484088	      0.02700099	      0.43723873	     -1.15571350	    138.63486915	    -46.80660854	     26.13304371	    110.60854959	      0.00000000	      9.91686707	      1.93048337	     18.12632398	      0.00000000	      0.00000000	    134.18849689	    -38.58997842	     19.19890535	    103.78894746	      0.00000000	     -9.94245526	      1.81145886	      9.12567190	      0.00000000	      0.00000000
      4.69000000	      4.58523449	    -38.04104465	      3.33918931	      0.02634278	      0.43821608	     -1.15582424	    138.56246705	    -46.87127251	     26.02070094	    110.46814951	      0.00000000	      9.91620530	      1.92803293	     18.05122841	      0.00000000	      0.00000000	    134.13216990	    -38.43736953	     19.03598980	    103.65702500	      0.00000000	     -9.94221640	      1.80915638	      9.06766501	      0.00000000	      0.00000000
      4.69500000	      4.67174624	    -38.12551486	      3.37973232	      0.02565641	      0.43925692	     -1.15592545	    138.50060878	    -46.85359226	     25.92664537	    110.31943087	      0.00000000	      9.91544353	      1.92543730	     17.98902659	      0.00000000	      0.00000000	    134.06757933	    -38.36245894	     18.83803545	    103.51037077	      0.00000000	     -9.94192418	      1.80659678	      8.90891764	      0.00000000	      0.00000000
      4.70000000	      4.72654649	    -38.22643355	      3.42326826	      0.02493477	      0.44034942	     -1.15602497	    138.43997882	    -46.79001335	     25.82032567	    110.16482418	      0.00000000	      9.91459283	      1.92273890	     17.90275135	      0.00000000	      0.00000000	    134.00175406	    -38.31807555	     18.63304026	    103.35984089	      0.00000000	     -9.94166567	      1.80396954	      8.81052954	      0.00000000	      0.00000000
      4.70500000	      4.76972235	    -38.33072521	      3.39913842	      0.02416017	      0.44152316	     -1.15613364	    138.29711876	    -46.77318777	     25.61163917	    109.98805869	      0.00000000	      9.91370667	      1.91965376	     17.84781435	      0.00000000	      0.00000000	    133.96856005	    -38.22938329	     18.48958575	    103.20029032	      0.00000000	     -9.94143915	      1.80118486	      8.76545802	      0.00000000	      0.00000000
      4.71000000	      4.88719916	    -38.41723320	      3.50370478	      0.02339441	      0.44273854	     -1.15626684	    138.27815315	    -46.73622988	     25.57716111	    109.81866737	      0.00000000	      9.91288686	      1.91669733	     17.76932503	      0.00000000	      0.00000000	    133.83179624	    -38.15909722	     18.20092844	    103.02627313	      0.00000000	     -9.94101631	      1.79814768	      8.56935355	      0.00000000	      0.00000000
      4.71500000	      4.96889707	    -38.51488419	      3.53298974	      0.02256847	      0.44403464	     -1.15639724	    138.17584119	    -46.71441444	     25.43131118	    109.63293007	      0.00000000	      9.91194436	      1.91345560	     17.65849110	      0.00000000	      0.00000000	    133.73974465	    -38.06073452	     17.98811524	    102.84666011	      0.00000000	     -9.94068561	      1.79501284	      8.44439060	      0.00000000	      0.00000000
      4.72000000	      5.03991697	    -38.63499369	      3.56876357	      0.02170833	      0.44537653	     -1.15653631	    138.08699171	    -46.67129207	     25.28200592	    109.43562263	      0.00000000	      9.91090643	      1.91001193	     17.57333796	      0.00000000	      0.00000000	    133.65758882	    -37.97278036	     17.76634707	    102.65971588	      0.00000000	     -9.94031806	      1.79175005	      8.34164456	      0.00000000	      0.00000000
      4.72500000	      5.12328409	    -38.74291168	      3.61344304	      0.02083881	      0.44678693	     -1.15667680	    137.98782084	    -46.63879266	     25.13347967	    109.23269036	      0.00000000	      9.90980621	      1.90647010	     17.48793408	      0.00000000	      0.00000000	    133.54667175	    -37.87904539	     17.52599627	    102.46300953	      0.00000000	     -9.93991866	      1.78831688	      8.21983576	      0.00000000	      0.00000000
      4.73000000	      5.19422441	    -38.85151567	      3.63575330	      0.01992473	      0.44826771	     -1.15681867	    137.85640081	    -46.60789347	     24.95202404	    109.01854385	      0.00000000	      9.90864375	      1.90273254	     17.38523058	      0.00000000	      0.00000000	    133.44219289	    -37.78022115	     17.30228315	    102.25790435	      0.00000000	     -9.93951687	      1.78473712	      8.09968701	      0.00000000	      0.00000000
      4.73500000	      5.27861284	    -38.97374821	      3.67757607	      0.01898355	      0.44980116	     -1.15696805	    137.75058350	    -46.57966215	     24.78209513	    108.79441584	      0.00000000	      9.90743882	      1.89882076	     17.28331826	      0.00000000	      0.00000000	    133.32390896	    -37.67599353	     17.05197168	    102.03797329	      0.00000000	     -9.93908274	      1.78089860	      7.97874963	      0.00000000	      0.00000000
      4.74000000	      5.35525646	    -39.09135426	      3.69180136	      0.01801032	      0.45138898	     -1.15711298	    137.60724780	    -46.56388028	     24.57660130	    108.56216298	      0.00000000	      9.90609422	      1.89476719	     17.16034321	      0.00000000	      0.00000000	    133.22268425	    -37.55204004	     16.82981776	    101.81896684	      0.00000000	     -9.93862304	      1.77707621	      7.83210966	      0.00000000	      0.00000000
      4.74500000	      5.44328879	    -39.21107235	      3.73224582	      0.01702976	      0.45303366	     -1.15727067	    137.48616815	    -46.54363829	     24.39175490	    108.32630459	      0.00000000	      9.90477317	      1.89065068	     17.05343176	      0.00000000	      0.00000000	    133.08916976	    -37.44446399	     16.56470148	    101.58627544	      0.00000000	     -9.93814056	      1.77301498	      7.72218811	      0.00000000	      0.00000000
      4.75000000	      5.56842026	    -39.33633329	      3.62304938	      0.01600355	      0.45474321	     -1.15742498	    137.23314519	    -46.70106281	     24.03268195	    108.06323088	      0.00000000	      9.90344961	      1.88605918	     16.95704822	      0.00000000	      0.00000000	    133.06038712	    -37.15016086	     16.46891384	    101.34915528	      0.00000000	     -9.93758635	      1.76887645	      7.55216316	      0.00000000	      0.00000000
      4.75500000	      5.58713557	    -39.49970816	      3.80396847	      0.01492234	      0.45652734	     -1.15756441	    137.23930522	    -46.46247055	     23.97422895	    107.81516255	      0.00000000	      9.90186784	      1.88172957	     16.81244403	      0.00000000	      0.00000000	    132.84647348	    -37.23234130	     16.04683570	    101.08268553	      0.00000000	     -9.93713995	      1.76422568	      7.46653962	      0.00000000	      0.00000000
      4.76000000	      5.59861993	    -39.66862157	      3.89806770	      0.01381856	      0.45835080	     -1.15768996	    137.16366814	    -46.29218461	     23.80400425	    107.55279929	      0.00000000	      9.90019186	      1.87715047	     16.67808311	      0.00000000	      0.00000000	    132.69967961	    -37.24903331	     15.72118107	    100.81400889	      0.00000000	     -9.93666749	      1.75953639	      7.33471648	      0.00000000	      0.00000000
      4.76500000	      5.77738543	    -39.76426103	      3.78537500	      0.01273802	      0.46026999	     -1.15788099	    136.87268447	    -46.53696800	     23.42503273	    107.26130017	      0.00000000	      9.89879434	      1.87206285	     16.55707195	      0.00000000	      0.00000000	    132.60042515	    -36.88704954	     15.58992795	    100.54261693	      0.00000000	     -9.93604422	      1.75479970	      7.21652059	      0.00000000	      0.00000000
